<?xml version="1.0" encoding="utf-8"?>
<!-- Generator: Adobe Illustrator 26.5.1, SVG Export Plug-In . SVG Version: 6.00 Build 0)  -->
<svg version="1.1" id="Layer_1" xmlns="http://www.w3.org/2000/svg" xmlns:xlink="http://www.w3.org/1999/xlink" x="0px" y="0px"
	 viewBox="0 0 251 52.7" style="enable-background:new 0 0 251 52.7;" xml:space="preserve">
<style type="text/css">
	.st0{fill:#FFFFFF;}
</style>
<g id="Layer_2_00000082364254408828673090000001681017668443098780_">
	<g id="Layer_1-2">
		<path class="st0" d="M20.8,52.7h-20C0.3,52.7,0,52.4,0,52c0-0.1,0-0.2,0.1-0.3l21.1-41.2c0.1-0.2,0.4-0.4,0.7-0.4H42
			c0.4,0,0.7,0.3,0.7,0.8c0,0.1,0,0.2-0.1,0.3L21.4,52.3C21.3,52.5,21,52.7,20.8,52.7z M2,51.2h18.3l20.4-39.7H22.3L2,51.2z"/>
		<path class="st0" d="M52.5,52.7H32.7c-0.3,0-0.6-0.2-0.7-0.6L21.1,11c-0.1-0.2,0-0.5,0.1-0.6c0.1-0.2,0.4-0.3,0.6-0.3h20
			c0.3,0,0.7,0.2,0.8,0.6l4,15.6l6.6,25.5c0,0.1,0,0.1,0,0.2l0,0C53.2,52.3,52.9,52.7,52.5,52.7z M33.3,51.2h18.3l-6.4-24.6
			l-3.9-15.1H22.8L33.3,51.2z"/>
		<path class="st0" d="M52.5,52.7c-0.3,0-0.6-0.2-0.7-0.5l-6.6-25.5c-0.1-0.2,0-0.4,0.1-0.5l2.8-5.5v-0.1l5.2-10.1l0,0
			c0.2-0.4,0.6-0.5,1-0.3c0.4,0.2,0.5,0.6,0.3,1c0,0,0,0,0,0l-4.7,9h18.6c0.4,0,0.7,0.3,0.7,0.7c0,0.1,0,0.2-0.1,0.3l-3.6,6.9h14.2
			c0.4,0,0.7,0.3,0.7,0.7c0,0.1,0,0.2-0.1,0.3l-5.4,10.4c-0.1,0.2-0.4,0.4-0.7,0.4H59.5l-6.3,12.2C53.1,52.5,52.8,52.7,52.5,52.7z
			 M46.7,26.5l6.1,23.4L58.4,39c0.1-0.2,0.4-0.4,0.7-0.4H74l4.6-9H64.5c-0.4,0-0.7-0.3-0.7-0.7c0-0.1,0-0.2,0.1-0.4l3.6-6.9H49.2
			L46.7,26.5z"/>
		<path class="st0" d="M52.5,52.7H32.7c-0.4,0-0.7-0.3-0.7-0.7c0-0.1,0-0.3,0.1-0.4l13.2-25.5c0.2-0.4,0.6-0.5,1-0.3
			c0.2,0.1,0.3,0.3,0.4,0.5l6.6,25.5c0.1,0.4-0.1,0.8-0.5,0.9C52.7,52.7,52.6,52.7,52.5,52.7z M34,51.2h17.6l-5.9-22.7L34,51.2z"/>
		<path class="st0" d="M88.3,21.6H68.6c-0.4,0-0.7-0.4-0.7-0.8c0-0.1,0-0.2,0.1-0.3l5.2-10.1c0.1-0.2,0.4-0.4,0.7-0.4h19.6
			c0.3,0,0.5,0.1,0.6,0.4c0.1,0.2,0.1,0.5,0,0.7L89,21.2C88.9,21.5,88.6,21.7,88.3,21.6z M69.8,20.2h18l4.4-8.6h-18L69.8,20.2z"/>
		<path class="st0" d="M68.6,21.6H48.8c-0.3,0-0.5-0.1-0.6-0.4c-0.1-0.2-0.1-0.5,0-0.7l5.2-10.1c0.1-0.2,0.4-0.4,0.7-0.4h19.8
			c0.4,0,0.7,0.3,0.7,0.8c0,0.1,0,0.2-0.1,0.3l-5.2,10.1C69.1,21.5,68.9,21.6,68.6,21.6z M50,20.2h18.2l4.4-8.6H54.5L50,20.2z"/>
		<path class="st0" d="M111,11.6H93.4c-0.3,0-0.5-0.1-0.6-0.4c-0.1-0.2-0.1-0.5,0-0.7L98,0.4C98.1,0.2,98.4,0,98.7,0h17.5
			c0.3,0,0.5,0.1,0.6,0.4c0.1,0.2,0.1,0.5,0,0.7l-5.2,10.1C111.5,11.4,111.3,11.6,111,11.6z M94.6,10.1h15.9l4.4-8.6H99.1L94.6,10.1
			z"/>
		<path class="st0" d="M131.2,19.3V47H126l-13.8-16.8V47h-6.3V19.3h5.3l13.7,16.8V19.3H131.2z"/>
		<path class="st0" d="M156.9,38.1h-16.1c0.3,1.3,1,2.4,2.1,3.1c1.2,0.8,2.6,1.2,4,1.2c1,0,2-0.1,2.9-0.5c0.9-0.4,1.7-0.9,2.4-1.6
			l3.3,3.5c-2,2.3-4.9,3.4-8.8,3.4c-2.2,0-4.4-0.4-6.4-1.4c-1.8-0.9-3.2-2.2-4.2-3.9c-1-1.7-1.5-3.7-1.5-5.6c0-2,0.5-3.9,1.5-5.6
			c1-1.7,2.4-3,4.1-3.9c3.6-1.8,7.8-1.9,11.4-0.1c1.7,0.9,3.1,2.2,4,3.9c1,1.8,1.5,3.8,1.4,5.8C157.1,36.5,157,37.1,156.9,38.1z
			 M142.5,31.3c-1,0.8-1.6,2-1.7,3.2h10.5c-0.2-1.3-0.8-2.4-1.7-3.2c-1-0.8-2.2-1.2-3.5-1.2C144.8,30,143.5,30.5,142.5,31.3z"/>
		<path class="st0" d="M172.7,46c-0.7,0.5-1.4,0.8-2.2,1c-0.9,0.2-1.8,0.3-2.8,0.3c-2.1,0.1-4.2-0.6-5.9-1.9
			c-1.5-1.5-2.2-3.6-2.1-5.7V31l0,0v-4.8l0,0V21h6.2v5.2h6.6V31h-6.6v8.6c0,0.8,0.2,1.5,0.7,2.1c0.5,0.5,1.3,0.8,2,0.7
			c0.9,0,1.8-0.2,2.5-0.8L172.7,46z"/>
		<path class="st0" d="M183,24.5v7.3h12.8v5.1H183V47h-6.4V19.3h20.9v5.1H183z"/>
		<path class="st0" d="M202.2,21.8c-1.4-1.3-1.4-3.4-0.2-4.7c0-0.1,0.1-0.1,0.2-0.2c0.8-0.7,1.8-1,2.8-1c1,0,2,0.3,2.8,1
			c0.7,0.6,1.1,1.5,1.1,2.4c0,1-0.4,1.9-1.1,2.5c-0.8,0.7-1.7,1-2.8,1C203.9,22.8,202.9,22.5,202.2,21.8z M201.9,25.7h6.1V47h-6.2
			L201.9,25.7z"/>
		<path class="st0" d="M222.2,26.2c1.4-0.6,2.8-0.8,4.3-0.8v5.7c-0.7,0-1.1-0.1-1.4-0.1c-1.5-0.1-3,0.5-4.1,1.5
			c-1.1,1.2-1.6,2.8-1.5,4.4V47h-6.2V25.7h5.9v2.8C220,27.5,221,26.7,222.2,26.2z"/>
		<path class="st0" d="M250.9,38.1h-16.1c0.3,1.3,1,2.4,2.1,3.1c1.2,0.8,2.6,1.2,4,1.2c1,0,2-0.1,2.9-0.5c0.9-0.4,1.7-0.9,2.4-1.6
			l3.3,3.5c-2,2.3-4.9,3.4-8.8,3.4c-2.2,0-4.4-0.4-6.4-1.4c-1.8-0.9-3.2-2.2-4.3-3.9c-1-1.7-1.5-3.7-1.5-5.6c0-2,0.5-3.9,1.5-5.6
			c1-1.7,2.4-3,4.1-3.9c1.8-1,3.8-1.4,5.8-1.4c2,0,3.9,0.4,5.6,1.3c1.7,0.9,3.1,2.2,4,3.9c1,1.8,1.5,3.8,1.4,5.8
			C251,36.5,251,37.1,250.9,38.1z M236.5,31.3c-1,0.8-1.6,2-1.7,3.2h10.5c-0.2-1.3-0.8-2.4-1.7-3.2c-1-0.8-2.2-1.2-3.5-1.2
			C238.7,30,237.5,30.5,236.5,31.3z"/>
	</g>
</g>
</svg>
